<?xml version="1.0" encoding="UTF-8"?>
<svg xmlns="http://www.w3.org/2000/svg" xmlns:xlink="http://www.w3.org/1999/xlink" width="431px" height="100px" viewBox="0 0 430 100" version="1.1">
<g id="surface1">
<path style=" stroke:none;fill-rule:nonzero;fill:rgb(0%,0%,0%);fill-opacity:1;" d="M 4.996094 11.480469 C 1.574219 14.90625 0.832031 19.074219 2.867188 23.519531 C 3.515625 24.816406 9.4375 30.183594 16.097656 35.371094 C 36.820312 51.667969 36.542969 49.90625 21.09375 69.445312 C 10.363281 82.964844 9.714844 83.980469 9.804688 87.777344 C 9.898438 90.925781 10.453125 92.40625 12.675781 94.628906 C 15.820312 97.683594 21.648438 98.980469 24.886719 97.316406 C 27.476562 95.832031 52.640625 64.535156 55.230469 59.351562 C 58.003906 53.980469 58.003906 48.054688 55.230469 42.128906 C 53.289062 38.054688 50.789062 35.742188 34.601562 22.871094 C 17.207031 9.074219 16.003906 8.332031 12.210938 8.332031 C 8.789062 8.332031 7.585938 8.890625 4.996094 11.480469 Z M 4.996094 11.480469 "/>
<path style=" stroke:none;fill-rule:nonzero;fill:rgb(0%,0%,0%);fill-opacity:1;" d="M 82.335938 50.183594 L 82.335938 82.871094 L 86.035156 82.871094 C 89.738281 82.871094 89.738281 82.871094 89.738281 79.445312 L 89.738281 75.925781 L 93.902344 78.890625 C 97.507812 81.390625 99.175781 81.945312 104.539062 82.222656 C 110.183594 82.59375 111.753906 82.316406 116.105469 80.09375 C 126.371094 75.09375 130.8125 64.167969 127.296875 52.40625 C 125.355469 46.109375 121.65625 41.757812 115.917969 39.167969 C 111.664062 37.222656 109.8125 36.851562 104.539062 37.222656 C 99.175781 37.5 97.417969 38.054688 93.902344 40.554688 L 89.738281 43.519531 L 89.738281 17.59375 L 82.335938 17.59375 Z M 113.234375 46.109375 C 118.878906 49.445312 121.839844 56.574219 120.265625 63.332031 C 119.15625 68.425781 116.75 71.390625 111.753906 73.890625 C 100.5625 79.535156 87.703125 69.074219 90.109375 56.109375 C 90.476562 54.445312 92.050781 51.480469 93.714844 49.628906 C 98.804688 43.703125 106.667969 42.316406 113.234375 46.109375 Z M 113.234375 46.109375 "/>
<path style=" stroke:none;fill-rule:nonzero;fill:rgb(0%,0%,0%);fill-opacity:1;" d="M 133.402344 52.964844 C 133.773438 71.480469 134.605469 74.445312 141.359375 79.167969 C 149.964844 85.09375 165.226562 82.683594 170.316406 74.445312 C 172.351562 71.019531 172.535156 69.722656 173 53.890625 L 173.460938 37.035156 L 165.597656 37.035156 L 165.597656 51.851562 C 165.597656 68.332031 164.859375 71.109375 160.046875 73.609375 C 156.625 75.371094 150.519531 75.371094 147.09375 73.609375 C 142.285156 71.109375 141.542969 68.332031 141.542969 51.851562 L 141.542969 37.035156 L 133.035156 37.035156 Z M 133.402344 52.964844 "/>
<path style=" stroke:none;fill-rule:nonzero;fill:rgb(0%,0%,0%);fill-opacity:1;" d="M 181.324219 59.722656 L 181.324219 82.40625 L 189.652344 82.40625 L 189.652344 51.667969 L 193.257812 48.054688 C 196.496094 44.722656 197.238281 44.445312 201.863281 44.445312 C 211.945312 44.445312 213.703125 47.964844 213.703125 68.054688 L 213.703125 82.40625 L 220.921875 82.40625 L 221.289062 67.316406 C 221.570312 54.445312 221.847656 51.945312 223.324219 49.722656 C 228.136719 42.59375 240.71875 42.59375 244.234375 49.722656 C 245.160156 51.480469 245.621094 56.851562 245.898438 67.316406 L 246.269531 82.40625 L 253.484375 82.40625 L 253.484375 66.667969 C 253.484375 50.277344 252.746094 46.390625 249.042969 42.316406 C 246.175781 39.074219 240.8125 37.035156 235.539062 37.035156 C 229.339844 37.035156 226.933594 37.871094 222.585938 41.757812 L 219.164062 44.722656 L 216.203125 41.851562 C 212.503906 38.242188 209.265625 37.035156 203.527344 37.035156 C 198.253906 37.035156 194.648438 38.242188 191.777344 40.925781 L 189.652344 42.871094 L 189.652344 40 C 189.652344 37.128906 189.558594 37.035156 185.488281 37.035156 L 181.324219 37.035156 Z M 181.324219 59.722656 "/>
<path style=" stroke:none;fill-rule:nonzero;fill:rgb(0%,0%,0%);fill-opacity:1;" d="M 272.542969 38.332031 C 257.464844 43.890625 253.761719 66.574219 266.253906 76.851562 C 272.820312 82.316406 284.664062 83.980469 293.914062 80.925781 C 299.648438 78.980469 300.113281 78.519531 299.371094 74.722656 L 298.722656 71.480469 L 293.914062 73.332031 C 286.699219 76.109375 277.167969 75.464844 272.542969 71.851562 C 270.601562 70.371094 268.472656 67.871094 267.824219 66.296875 L 266.621094 63.425781 L 284.292969 62.964844 L 302.054688 62.5 L 301.960938 56.851562 C 301.871094 49.816406 298.632812 43.703125 293.082031 40 C 289.933594 37.964844 288.085938 37.5 282.71875 37.316406 C 278.742188 37.128906 274.761719 37.5 272.542969 38.332031 Z M 288.546875 45.742188 C 291.507812 47.316406 293.636719 50.183594 294.5625 53.890625 L 295.117188 56.480469 L 281.238281 56.480469 C 267.917969 56.480469 267.363281 56.390625 267.363281 54.628906 C 267.363281 51.945312 270.046875 48.148438 273.375 46.203125 C 276.796875 44.074219 284.847656 43.890625 288.546875 45.742188 Z M 288.546875 45.742188 "/>
<path style=" stroke:none;fill-rule:nonzero;fill:rgb(0%,0%,0%);fill-opacity:1;" d="M 307.144531 59.722656 L 307.144531 82.40625 L 315.46875 82.40625 L 315.46875 67.316406 C 315.46875 54.074219 315.652344 51.945312 317.320312 49.351562 C 319.726562 45.371094 322.128906 44.257812 327.679688 44.535156 C 332.121094 44.816406 332.398438 44.722656 333.507812 41.851562 C 334.988281 38.519531 334.804688 38.332031 329.992188 37.5 C 325.089844 36.574219 320.648438 37.59375 317.875 40.464844 L 315.46875 42.871094 L 315.46875 39.90625 C 315.46875 37.128906 315.375 37.035156 311.304688 37.035156 L 307.144531 37.035156 Z M 307.144531 59.722656 "/>
<path style=" stroke:none;fill-rule:nonzero;fill:rgb(0%,0%,0%);fill-opacity:1;" d="M 346.277344 38.890625 C 341.742188 41.203125 337.117188 46.203125 335.265625 50.554688 C 333.324219 55.183594 333.695312 64.535156 335.914062 69.445312 C 339.707031 77.777344 345.351562 81.574219 354.878906 82.222656 C 361.816406 82.683594 365.425781 81.480469 369.867188 77.5 L 371.902344 75.648438 L 371.902344 82.40625 L 380.226562 82.40625 L 380.226562 37.035156 L 376.066406 37.035156 C 371.902344 37.035156 371.902344 37.035156 371.902344 40.277344 L 371.902344 43.609375 L 368.203125 40.648438 C 364.871094 37.964844 363.761719 37.59375 357.378906 37.316406 C 351.363281 36.945312 349.515625 37.222656 346.277344 38.890625 Z M 364.871094 46.203125 C 369.3125 48.703125 371.253906 52.222656 371.71875 58.242188 C 372.363281 67.222656 368.570312 72.59375 359.875 75 C 350.808594 77.40625 341.371094 69.628906 341.371094 59.816406 C 341.371094 47.316406 353.953125 40 364.871094 46.203125 Z M 364.871094 46.203125 "/>
<path style=" stroke:none;fill-rule:nonzero;fill:rgb(0%,0%,0%);fill-opacity:1;" d="M 387.628906 59.722656 L 387.628906 82.40625 L 395.957031 82.40625 L 395.957031 68.519531 C 395.957031 52.683594 396.789062 49.257812 401.691406 46.296875 C 405.484375 43.980469 413.164062 43.796875 416.125 45.925781 C 420.285156 48.796875 420.933594 51.667969 420.933594 67.59375 L 420.933594 82.40625 L 429.445312 82.40625 L 429.074219 66.390625 C 428.796875 52.128906 428.519531 50 426.667969 46.109375 C 423.429688 39.535156 419.546875 37.5 410.203125 37.5 C 403.449219 37.5 402.429688 37.777344 399.378906 40.09375 L 395.957031 42.683594 L 395.957031 39.90625 C 395.957031 37.128906 395.863281 37.035156 391.792969 37.035156 L 387.628906 37.035156 Z M 387.628906 59.722656 "/>
</g>
</svg>
